name ./resultDataOpenSim/trcMotMarkerGrf/sub09/grf-12-03.mot
datacolumns 19
datarows 27
range 0.93200000 1.03600000
endheader

                time	     ground_force_vx	     ground_force_vy	     ground_force_vz	     ground_force_px	     ground_force_py	     ground_force_pz	   l_ground_force_vx	   l_ground_force_vy	   l_ground_force_vz	   l_ground_force_px	   l_ground_force_py	   l_ground_force_pz	     ground_torque_x	     ground_torque_y	     ground_torque_z	   l_ground_torque_x	   l_ground_torque_y	   l_ground_torque_z	
          0.93200000	          0.00000000	          0.00000000	          0.00000000	          0.00000000	          0.00000000	          0.00000000	          9.69941245	        439.89245261	          6.07371961	          0.17782563	         -0.02500000	         -0.04320653	          0.00000000	          0.00000000	          0.00000000	          0.00000000	         -1.96850856	          0.00000000	
          0.93600000	          0.00000000	          0.00000000	          0.00000000	          0.00000000	          0.00000000	          0.00000000	         15.15608907	        449.18456857	          7.81036214	          0.17861771	         -0.02500000	         -0.04334406	          0.00000000	          0.00000000	          0.00000000	          0.00000000	         -2.08983420	          0.00000000	
          0.94000000	          0.00000000	          0.00000000	          0.00000000	          0.00000000	          0.00000000	          0.00000000	         21.23411144	        459.23215099	          9.88045774	          0.17943103	         -0.02500050	         -0.04346187	          0.00000000	          0.00000000	          0.00000000	          0.00000000	         -2.17667918	          0.00000000	
          0.94400000	          0.00000000	          0.00000000	          0.00000000	          0.00000000	          0.00000000	          0.00000000	         27.77736964	        470.07764301	         12.15873189	          0.18033069	         -0.02500093	         -0.04352807	          0.00000000	          0.00000000	          0.00000000	          0.00000000	         -2.23805976	          0.00000000	
          0.94800000	          0.00000000	          0.00000000	          0.00000000	          0.00000000	          0.00000000	          0.00000000	         34.57895776	        481.75301115	         14.40292827	          0.18136101	         -0.02500100	         -0.04351867	          0.00000000	          0.00000000	          0.00000000	          0.00000000	         -2.28828910	          0.00000000	
          0.95200000	          0.00000000	          0.00000000	          0.00000000	          0.00000000	          0.00000000	          0.00000000	         41.41760462	        494.31449112	         16.31479410	          0.18253319	         -0.02500100	         -0.04342911	          0.00000000	          0.00000000	          0.00000000	          0.00000000	         -2.34436422	          0.00000000	
          0.95600000	          0.00000000	          0.00000000	          0.00000000	          0.00000000	          0.00000000	          0.00000000	         48.10951053	        507.88003013	         17.65590431	          0.18383137	         -0.02500100	         -0.04326484	          0.00000000	          0.00000000	          0.00000000	          0.00000000	         -2.42204796	          0.00000000	
          0.96000000	          0.00000000	          0.00000000	          0.00000000	          0.00000000	          0.00000000	          0.00000000	         54.53211215	        522.65639539	         18.33409001	          0.18521877	         -0.02500100	         -0.04303015	          0.00000000	          0.00000000	          0.00000000	          0.00000000	         -2.53189109	          0.00000000	
          0.96400000	          0.00000000	          0.00000000	          0.00000000	          0.00000000	          0.00000000	          0.00000000	         60.61158285	        538.91099813	         18.41454881	          0.18663222	         -0.02500100	         -0.04272982	          0.00000000	          0.00000000	          0.00000000	          0.00000000	         -2.67654830	          0.00000000	
          0.96800000	          0.00000000	          0.00000000	          0.00000000	          0.00000000	          0.00000000	          0.00000000	         66.28770638	        556.86547562	         18.08185009	          0.18799450	         -0.02500100	         -0.04237128	          0.00000000	          0.00000000	          0.00000000	          0.00000000	         -2.85033175	          0.00000000	
          0.97200000	          0.00000000	          0.00000000	          0.00000000	          0.00000000	          0.00000000	          0.00000000	         71.47751235	        576.58422061	         17.57971022	          0.18924166	         -0.02500100	         -0.04197280	          0.00000000	          0.00000000	          0.00000000	          0.00000000	         -3.04118767	          0.00000000	
          0.97600000	          0.00000000	          0.00000000	          0.00000000	          0.00000000	          0.00000000	          0.00000000	         76.07680135	        597.93954448	         17.13323140	          0.19032844	         -0.02500100	         -0.04156957	          0.00000000	          0.00000000	          0.00000000	          0.00000000	         -3.23438674	          0.00000000	
          0.98000000	          0.00000000	          0.00000000	          0.00000000	          0.00000000	          0.00000000	          0.00000000	         80.01104101	        620.64463672	         16.87265773	          0.19123504	         -0.02500100	         -0.04120010	          0.00000000	          0.00000000	          0.00000000	          0.00000000	         -3.41656103	          0.00000000	
          0.98400000	          0.00000000	          0.00000000	          0.00000000	          0.00000000	          0.00000000	          0.00000000	         83.29237888	        644.29815754	         16.79667106	          0.19197748	         -0.02500100	         -0.04088717	          0.00000000	          0.00000000	          0.00000000	          0.00000000	         -3.57866604	          0.00000000	
          0.98800000	          0.00000000	          0.00000000	          0.00000000	          0.00000000	          0.00000000	          0.00000000	         86.04580283	        668.41032144	         16.80026242	          0.19258644	         -0.02500100	         -0.04062666	          0.00000000	          0.00000000	          0.00000000	          0.00000000	         -3.71700920	          0.00000000	
          0.99200000	          0.00000000	          0.00000000	          0.00000000	          0.00000000	          0.00000000	          0.00000000	         88.49634434	        692.42758198	         16.75311619	          0.19310835	         -0.02500100	         -0.04039309	          0.00000000	          0.00000000	          0.00000000	          0.00000000	         -3.83233628	          0.00000000	
          0.99600000	          0.00000000	          0.00000000	          0.00000000	          0.00000000	          0.00000000	          0.00000000	         90.91899167	        715.78145816	         16.58049771	          0.19360271	         -0.02500096	         -0.04016055	          0.00000000	          0.00000000	          0.00000000	          0.00000000	         -3.92772246	          0.00000000	
          1.00000000	          0.00000000	          0.00000000	          0.00000000	          0.00000000	          0.00000000	          0.00000000	         93.57641108	        737.96280996	         16.29457122	          0.19414441	         -0.02500000	         -0.03991613	          0.00000000	          0.00000000	          0.00000000	          0.00000000	         -4.00637075	          0.00000000	
          1.00400000	          0.00000000	          0.00000000	          0.00000000	          0.00000000	          0.00000000	          0.00000000	         96.67123711	        758.58615026	         15.96420755	          0.19476145	         -0.02500064	         -0.03965104	          0.00000000	          0.00000000	          0.00000000	          0.00000000	         -4.07021364	          0.00000000	
          1.00800000	          0.00000000	          0.00000000	          0.00000000	          0.00000000	          0.00000000	          0.00000000	        100.31465261	        777.37925504	         15.66177693	          0.19543934	         -0.02500005	         -0.03936748	          0.00000000	          0.00000000	          0.00000000	          0.00000000	         -4.11958693	          0.00000000	
          1.01200000	          0.00000000	          0.00000000	          0.00000000	          0.00000000	          0.00000000	          0.00000000	        104.51713441	        794.12543504	         15.42471896	          0.19617216	         -0.02500000	         -0.03907580	          0.00000000	          0.00000000	          0.00000000	          0.00000000	         -4.15364116	          0.00000000	
          1.01600000	          0.00000000	          0.00000000	          0.00000000	          0.00000000	          0.00000000	          0.00000000	        109.20955620	        808.66158494	         15.23974586	          0.19694951	         -0.02500000	         -0.03878412	          0.00000000	          0.00000000	          0.00000000	          0.00000000	         -4.17095142	          0.00000000	
          1.02000000	          0.00000000	          0.00000000	          0.00000000	          0.00000000	          0.00000000	          0.00000000	        114.28497715	        820.92054594	         15.05051834	          0.19775590	         -0.02500000	         -0.03849345	          0.00000000	          0.00000000	          0.00000000	          0.00000000	         -4.16997693	          0.00000000	
          1.02400000	          0.00000000	          0.00000000	          0.00000000	          0.00000000	          0.00000000	          0.00000000	        119.64253109	        830.94035233	         14.78987542	          0.19857465	         -0.02500000	         -0.03819916	          0.00000000	          0.00000000	          0.00000000	          0.00000000	         -4.14932218	          0.00000000	
          1.02800000	          0.00000000	          0.00000000	          0.00000000	          0.00000000	          0.00000000	          0.00000000	        125.20868240	        838.83442762	         14.41733464	          0.19939511	         -0.02500000	         -0.03789655	          0.00000000	          0.00000000	          0.00000000	          0.00000000	         -4.10792480	          0.00000000	
          1.03200000	          0.00000000	          0.00000000	          0.00000000	          0.00000000	          0.00000000	          0.00000000	        130.92772101	        844.73819210	         13.93306642	          0.20020448	         -0.02500000	         -0.03758516	          0.00000000	          0.00000000	          0.00000000	          0.00000000	         -4.04530566	          0.00000000	
          1.03600000	          0.00000000	          0.00000000	          0.00000000	          0.00000000	          0.00000000	          0.00000000	        136.73771762	        848.74898224	         13.36757514	          0.20099210	         -0.02500000	         -0.03728006	          0.00000000	          0.00000000	          0.00000000	          0.00000000	         -3.96193734	          0.00000000	
